<?xml version="1.0" encoding="utf-8"?>
<!-- Generator: Adobe Illustrator 27.9.1, SVG Export Plug-In . SVG Version: 6.00 Build 0)  -->
<svg version="1.1" id="圖層_1" xmlns="http://www.w3.org/2000/svg" xmlns:xlink="http://www.w3.org/1999/xlink" x="0px" y="0px"
	 viewBox="0 0 732.64 161.63" style="enable-background:new 0 0 732.64 161.63;" xml:space="preserve">
<style type="text/css">
	.st0{fill:#FFFFFF;}
	.st1{fill:#EA5710;}
</style>
<polygon class="st0" points="141.38,95.17 66.11,95.17 91.54,116.43 68.53,139.44 9.92,80.83 68.53,22.19 91.35,45.01 66.11,66.46 
	141.38,66.46 "/>
<g>
	<circle class="st1" cx="222.93" cy="80.82" r="66.55"/>
	<g>
		<path class="st0" d="M235.54,113.16V84.28h-25.28v28.88h-13.38V48.47h13.38v24.66h25.28V48.47h13.43v64.69H235.54z"/>
	</g>
</g>
<g>
	<circle class="st1" cx="367.67" cy="80.82" r="66.55"/>
	<g>
		<path class="st0" d="M367.61,113.16c-9.24,0-16.31-2.52-21.19-7.55c-6.55-6.17-9.83-15.07-9.83-26.68
			c0-11.85,3.28-20.74,9.83-26.68c4.89-5.03,11.95-7.55,21.19-7.55c9.25,0,16.31,2.52,21.2,7.55c6.52,5.94,9.78,14.83,9.78,26.68
			c0,11.62-3.26,20.51-9.78,26.68C383.92,110.64,376.85,113.16,367.61,113.16z M380.38,95.78c3.13-3.95,4.69-9.57,4.69-16.85
			c0-7.26-1.57-12.86-4.72-16.83s-7.4-5.95-12.75-5.95c-5.35,0-9.62,1.98-12.81,5.92c-3.19,3.95-4.78,9.57-4.78,16.85
			c0,7.29,1.59,12.9,4.78,16.85c3.19,3.95,7.46,5.93,12.81,5.93C372.96,101.71,377.22,99.73,380.38,95.78z"/>
	</g>
</g>
<g>
	<circle class="st1" cx="512.42" cy="80.82" r="66.55"/>
	<g>
		<path class="st0" d="M493.75,113.16h-12.6V48.47h19.66l11.76,50.86l11.67-50.86h19.44v64.69H531.1V69.41
			c0-1.26,0.01-3.02,0.04-5.29c0.03-2.27,0.05-4.02,0.05-5.24l-12.24,54.28h-13.12l-12.15-54.28c0,1.23,0.01,2.98,0.04,5.24
			s0.05,4.03,0.05,5.29V113.16z"/>
	</g>
</g>
<g>
	<circle class="st1" cx="657.17" cy="80.82" r="66.55"/>
	<g>
		<path class="st0" d="M677.29,84.9h-31.42v16.63h35.81v11.63h-49.02V48.47h47.44v11.45h-34.23v13.74h31.42V84.9z"/>
	</g>
</g>
</svg>
