<?xml version="1.0" encoding="UTF-8"?>
<svg id="_圖層_4" data-name="圖層 4" xmlns="http://www.w3.org/2000/svg" viewBox="0 0 513.33 612">
  <defs>
    <style>
      .cls-1, .cls-2, .cls-3, .cls-4, .cls-5 {
        stroke-width: 0px;
      }

      .cls-2 {
        fill: #592b15;
      }

      .cls-3 {
        fill: #b38a50;
      }

      .cls-4 {
        fill: #fff;
      }

      .cls-5 {
        fill: #e7c9a7;
      }
    </style>
  </defs>
  <rect class="cls-4" x="194.68" y="266.77" width="154.07" height="194.84" transform="translate(-56.9 50.39) rotate(-9.6)"/>
  <circle class="cls-1" cx="332.1" cy="280.08" r="22.78"/>
  <g>
    <path class="cls-1" d="m198.29,535.15l-103.48-27.48c-16.29-4.33-24.63-22.17-18.78-39.37l31.59-92.92,145.19,38.56-18.68,96.34c-3.46,17.84-19.55,29.19-35.84,24.87Z"/>
    <polygon class="cls-1" points="227.06 360.24 215.44 404.01 203.21 400.76 211.95 367.85 165.95 355.63 157.21 388.55 144.98 385.3 156.6 341.53 227.06 360.24"/>
  </g>
  <rect class="cls-4" x="151.27" y="278.51" width="61.51" height="97.61" transform="translate(158.28 -46.45) rotate(25.44)"/>
  <circle class="cls-5" cx="267.56" cy="228.14" r="81.18"/>
  <polygon class="cls-3" points="271.99 408.11 222.39 408.11 214.77 320.28 279.61 320.28 271.99 408.11"/>
  <circle class="cls-5" cx="211.53" cy="364.19" r="25.15"/>
  <path class="cls-1" d="m348.58,219.25c-8.11,3.29-16.9,5.31-26.14,5.82-26.27,1.42-50.29-9.81-66.15-28.37-13.39,12.35-31,20.29-50.61,21.35-6.55.36-12.97-.08-19.15-1.22,2.39-31.32,22.55-57.68,50.43-68.99,9.42-3.83,19.72-5.94,30.52-5.94,5.04,0,9.97.46,14.76,1.34,36.57,6.72,64.57,37.94,66.33,76.02Z"/>
  <rect class="cls-1" x="340.23" y="391.87" width="74.48" height="166.72"/>
  <rect class="cls-1" x="257.62" y="341.53" width="74.48" height="166.72"/>
  <path class="cls-2" d="m347.39,497.4l13.22,46.63-82.67,23.45c-5.07,1.44-8.5-5.06-4.45-8.44l73.9-61.64Z"/>
  <path class="cls-2" d="m241.26,514.68v48.47h-85.93c-5.27,0-6.79-7.19-1.98-9.33l87.91-39.13Z"/>
  <ellipse class="cls-1" cx="231.52" cy="240.24" rx="5.52" ry="11.77" transform="translate(-36.81 41.95) rotate(-9.6)"/>
  <ellipse class="cls-1" cx="281.9" cy="240.24" rx="5.52" ry="11.77" transform="translate(-36.1 50.35) rotate(-9.6)"/>
</svg>