<?xml version="1.0" encoding="UTF-8"?>
<svg id="_圖層_2" data-name="圖層 2" xmlns="http://www.w3.org/2000/svg" viewBox="0 0 513.33 612">
  <defs>
    <style>
      .cls-1 {
        stroke-linecap: round;
      }

      .cls-1, .cls-2 {
        fill: none;
        stroke: #231815;
        stroke-miterlimit: 10;
        stroke-width: 4.02px;
      }

      .cls-3 {
        font-family: OpenSansRoman-Bold, 'Open Sans';
        font-size: 30.61px;
        font-variation-settings: 'wght' 700, 'wdth' 100;
        font-weight: 700;
      }

      .cls-4 {
        fill: #422b00;
      }

      .cls-4, .cls-5, .cls-6, .cls-7, .cls-8, .cls-9, .cls-10 {
        stroke-width: 0px;
      }

      .cls-5 {
        fill: #231815;
      }

      .cls-6 {
        fill: #dcdc3a;
      }

      .cls-7 {
        fill: #c4542d;
      }

      .cls-8 {
        fill: #8c4145;
      }

      .cls-9 {
        fill: #fff;
      }

      .cls-10 {
        fill: #e7c9a7;
      }
    </style>
  </defs>
  <g>
    <circle class="cls-4" cx="119.13" cy="159.39" r="29.29"/>
    <path class="cls-10" d="m334.82,248.7c0,57.58-46.25,104.26-103.31,104.26-46.24,0-85.38-30.66-98.56-72.93-3.09-9.89-4.75-20.41-4.75-31.33,0-57.58,46.25-104.26,103.31-104.26,1.89,0,3.78.05,5.65.16,53.04,2.88,95.45,46.14,97.58,99.86.05,1.41.08,2.82.08,4.24Z"/>
    <path class="cls-4" d="m334.74,244.46h0c-106.96.51-103.22-100.01-103.22-100.01,55.65,0,101.02,44.4,103.22,100.01Z"/>
    <path class="cls-4" d="m253.31,162.26l-13.59,26.5c-29.25,64.51-102.55,89.86-106.76,91.27-3.09-9.89-4.75-20.41-4.75-31.33,0-57.58,46.25-104.26,103.31-104.26,1.89,0,3.78.05,5.65.16l16.14,17.66Z"/>
    <path class="cls-2" d="m236.39,296.46c5.28-3.12,11.97-5.55,19.8-5.22,8.8.37,13.71,17.42,4.92,16.82-8.18-.55-14.79,2.55-20.7,5.6-8.02,4.15-11.8-12.61-4.02-17.21Z"/>
    <path class="cls-1" d="m170.5,274.84c21.48,7.81,40.84,4.19,58.06-10.83"/>
    <path class="cls-1" d="m241.64,261.57c21.48,7.81,40.84,4.19,58.06-10.83"/>
    <rect class="cls-7" x="213.48" y="419.92" width="37.53" height="37.53" transform="translate(119.69 -44.75) rotate(14.79)"/>
    <rect class="cls-5" x="254.41" y="318.92" width="192.54" height="228.14"/>
    <rect class="cls-10" x="246.55" y="394.56" width="167.11" height="59.13" rx="29.57" ry="29.57" transform="translate(770.41 732.32) rotate(162.89)"/>
    <polygon class="cls-9" points="351.05 391.46 379.09 337.64 407.12 283.82 351.05 283.82 294.97 283.82 323.01 337.64 351.05 391.46"/>
    <polygon class="cls-8" points="256.96 572.27 72.32 523.52 157.48 344.05 271.49 374.15 256.96 572.27"/>
    <g>
      <rect class="cls-7" x="187.03" y="385.66" width="37.53" height="37.53" transform="translate(584.41 654.55) rotate(150.42)"/>
      <rect class="cls-7" x="165.67" y="454.18" width="37.53" height="37.53" transform="translate(578.3 793.2) rotate(150.42)"/>
      <rect class="cls-7" x="116.43" y="395.43" width="37.53" height="37.53" transform="translate(457.24 707.66) rotate(150.42)"/>
    </g>
    <rect class="cls-10" x="167.55" y="417.11" width="167.11" height="59.13" rx="29.57" ry="29.57" transform="translate(142.57 -54.12) rotate(17.11)"/>
  </g>
  <rect class="cls-6" x="104.39" y="10.93" width="288.17" height="79.27" rx="39.63" ry="39.63"/>
  <text class="cls-3" transform="translate(139.35 60.31)"><tspan x="0" y="0">I’m soo tired...</tspan></text>
  <polyline class="cls-6" points="277.41 122.69 259.64 76.95 295.19 76.95"/>
</svg>