<?xml version="1.0" encoding="UTF-8"?>
<svg id="_圖層_1" data-name="圖層 1" xmlns="http://www.w3.org/2000/svg" viewBox="0 0 513.33 612">
  <defs>
    <style>
      .cls-1 {
        fill: #ddba8d;
        stroke: #000;
        stroke-miterlimit: 10;
        stroke-width: 4.93px;
      }

      .cls-2, .cls-3, .cls-4, .cls-5, .cls-6 {
        stroke-width: 0px;
      }

      .cls-3 {
        fill: #4d4545;
      }

      .cls-4 {
        fill: #788a3a;
      }

      .cls-5 {
        fill: #fff;
      }

      .cls-6 {
        fill: #e7ba7a;
      }
    </style>
  </defs>
  <circle class="cls-5" cx="164.39" cy="281.22" r="17.19"/>
  <rect class="cls-2" x="160.03" y="281.97" width="217.38" height="217.38"/>
  <g>
    <g>
      <rect class="cls-4" x="241.74" y="418.5" width="99.14" height="158.48" transform="translate(9.45 -5.41) rotate(1.08)"/>
      <rect class="cls-4" x="341.85" y="376.44" width="99.14" height="158.48" transform="translate(916.49 747.5) rotate(159.73)"/>
    </g>
    <rect class="cls-4" x="310.41" y="398.34" width="22.59" height="25.06" transform="translate(-122.43 136.91) rotate(-20.27)"/>
  </g>
  <path class="cls-6" d="m295.19,269.69c0,45-40.52,81.49-90.51,81.49-40.51,0-74.8-23.96-86.35-57-2.7-7.73-4.16-15.96-4.16-24.49,0-45,40.52-81.49,90.51-81.49,1.66,0,3.31.04,4.95.12,46.47,2.25,83.62,36.07,85.49,78.05.05,1.1.07,2.2.07,3.31Z"/>
  <g>
    <rect class="cls-1" x="133.85" y="257.32" width="68.69" height="45.35"/>
    <rect class="cls-1" x="230.34" y="257.32" width="68.69" height="45.35"/>
    <line class="cls-1" x1="202.54" y1="279.99" x2="230.34" y2="279.99"/>
  </g>
  <g>
    <g>
      <polygon class="cls-3" points="267.46 472.95 204.68 454.73 204.68 363.07 267.46 381.29 267.46 472.95"/>
      <polygon class="cls-3" points="267.46 472.95 330.23 454.73 330.23 363.07 267.46 381.29 267.46 472.95"/>
    </g>
    <circle class="cls-6" cx="335.66" cy="418.01" r="31.34"/>
  </g>
  <g>
    <polygon class="cls-5" points="204.68 517.11 81.63 517.11 51.73 381.43 173.39 386.19 204.68 517.11"/>
    <polygon class="cls-5" points="136.43 353.9 143.73 385.03 134.53 384.67 129.38 362.58 91.62 360.85 96.7 383.19 87.24 382.82 80.09 351.18 136.43 353.9"/>
  </g>
  <path class="cls-2" d="m209.72,175.35c40.57-8.38,16.06,43.13-12.62,26.53,28.69,16.6-41.94,40.23-36.39,12.18-5.56,28.06-69.13,6.03-32.75-11.35-36.38,17.38-45.02-33.73-4.45-26.33-40.57-7.41,12.23-49.11,27.2-21.48-14.97-27.62,59.51-28.52,38.37-.46,21.14-28.06,61.21,12.53,20.64,20.91Z"/>
</svg>